<?xml version="1.0" standalone="no"?>
<!DOCTYPE svg PUBLIC "-//W3C//DTD SVG 20010904//EN"
 "http://www.w3.org/TR/2001/REC-SVG-20010904/DTD/svg10.dtd">
<svg version="1.0" xmlns="http://www.w3.org/2000/svg"
 width="1080.000000pt" height="1080.000000pt" viewBox="0 0 1080.000000 1080.000000"
 preserveAspectRatio="xMidYMid meet">

<g transform="translate(0.000000,1080.000000) scale(0.100000,-0.100000)"
fill="#000000" stroke="none">
<path d="M4925 9845 c-613 -48 -1142 -192 -1707 -463 -166 -80 -263 -134 -423
-237 -190 -122 -225 -147 -220 -155 7 -11 -41 -44 -53 -36 -5 3 -28 -13 -52
-35 -23 -22 -63 -54 -89 -71 -25 -18 -72 -56 -103 -86 -32 -30 -70 -63 -86
-72 -73 -44 -435 -424 -562 -589 -188 -244 -298 -410 -418 -631 -151 -280
-322 -675 -337 -778 -2 -13 -10 -38 -19 -56 -19 -40 -90 -310 -117 -444 -48
-238 -61 -342 -90 -722 -21 -273 0 -680 52 -1000 41 -259 153 -656 270 -955
49 -128 239 -506 328 -655 56 -93 98 -156 192 -290 332 -471 776 -900 1254
-1211 232 -152 654 -377 677 -363 7 5 8 2 3 -6 -6 -10 -4 -12 8 -7 10 3 17 2
17 -3 0 -5 7 -6 17 -3 12 5 14 3 8 -7 -6 -10 -4 -12 8 -7 10 3 17 2 17 -3 0
-5 7 -6 17 -3 12 5 14 3 8 -7 -5 -8 -3 -11 6 -8 8 3 20 -2 28 -9 8 -8 22 -12
33 -10 10 3 16 2 13 -3 -15 -23 741 -248 762 -226 4 3 -4 6 -17 6 -13 0 -21 3
-18 6 3 3 23 2 44 -2 30 -5 34 -9 20 -14 -16 -5 112 -31 279 -55 194 -28 659
-52 725 -36 25 5 83 11 130 11 181 3 613 60 637 84 3 3 -93 3 -213 0 -235 -7
-611 13 -794 42 -246 39 -585 123 -870 216 -324 106 -746 312 -1045 511 -203
135 -483 364 -640 522 -572 577 -954 1265 -1139 2055 -100 428 -130 698 -130
1180 1 293 4 373 23 530 35 299 125 643 246 945 66 165 217 477 248 514 27 32
77 122 74 134 -1 6 4 11 10 10 17 -4 47 43 37 58 -4 7 -3 9 2 6 6 -3 16 3 23
15 10 16 10 19 -1 13 -7 -3 -4 1 6 9 11 9 29 31 40 50 63 104 257 329 455 526
310 310 608 523 1011 725 246 123 312 140 420 106 109 -34 198 -129 220 -234
13 -66 47 -557 61 -887 15 -366 0 -680 -42 -873 -27 -123 -39 -146 -109 -220
-88 -93 -116 -125 -163 -187 -23 -30 -47 -59 -54 -65 -21 -18 -103 -128 -139
-186 -40 -66 -98 -239 -108 -319 -20 -169 63 -443 186 -610 50 -68 224 -240
242 -240 8 0 38 -13 68 -28 29 -16 84 -37 122 -47 62 -17 79 -18 180 -6 259
28 378 71 503 178 126 109 159 129 179 112 9 -7 26 -18 38 -24 11 -6 25 -20
30 -31 14 -32 139 -90 271 -125 113 -31 130 -32 302 -33 l183 -1 157 80 c139
71 167 89 234 155 67 66 80 85 109 160 59 150 53 353 -17 540 -56 152 -90 199
-278 385 -161 160 -174 176 -222 270 -145 282 -179 457 -223 1135 -30 456 -43
940 -38 1366 3 210 2 404 -3 432 -10 68 -52 153 -97 197 -20 20 -69 52 -108
71 -70 34 -72 34 -200 33 -71 -1 -201 -7 -289 -14z m-462 -9162 c-7 -2 -19 -2
-25 0 -7 3 -2 5 12 5 14 0 19 -2 13 -5z m60 -10 c-7 -2 -19 -2 -25 0 -7 3 -2
5 12 5 14 0 19 -2 13 -5z m75 -10 c-10 -2 -26 -2 -35 0 -10 3 -2 5 17 5 19 0
27 -2 18 -5z"/>
</g>
</svg>
